#!OML:ASF E:\emotionWalksFemale\Project 1\Capture day 1\Session 1\Female1.ASF
:FULLY-SPECIFIED
:DEGREES
2481
root 11.0514 15.2883 -1.30595 -0.923546 -7.06536 362.416
lowerback 2.28988 -2.59406 -1.78944
upperback -6.41951 -3.50661 1.53852
thorax -7.79794 -1.56672 2.92778
lowerneck -12.7818 5.05442 3.79745
upperneck 11.3827 6.32289 -1.43025
head 5.69784 3.14151 -0.513464
rclavicle -5.86415e-014 7.95139e-016
rhumerus -57.6828 -7.78715 -65.5814
rradius 33.9056
rwrist 16.5554
rhand -5.7445 -50.3384
rfingers 7.12502
rthumb -159.922 -619.321
lclavicle -5.86415e-014 7.95139e-016
lhumerus -50.9225 14.6683 70.5362
lradius 38.2498
lwrist -10.1242
lhand -5.97449 -32.1745
lfingers 7.12502
lthumb 19.8569 -3.1689
rfemur -30.3044 25.857 12.0116
rtibia 22.073
rfoot -20.3127 -36.0211
rtoes 2.16062
lfemur 16.9716 -17.3141 -34.8828
ltibia 5.19224
lfoot -22.5488 24.9579
ltoes -12.7417
2482
root 11.0315 15.266 -1.22244 -0.925374 -6.84925 362.392
lowerback 2.0694 -2.55408 -1.60181
upperback -6.28877 -3.43066 1.63304
thorax -7.5369 -1.54402 2.89782
lowerneck -12.6694 5.01338 3.75574
upperneck 11.2957 6.3008 -1.58788
head 5.6549 3.11813 -0.562148
rclavicle -3.04141e-014 1.43125e-014
rhumerus -57.6717 -7.76168 -65.6138
rradius 33.9582
rwrist 16.4484
rhand -5.49714 -50.9387
rfingers 7.12502
rthumb -159.684 -619.896
lclavicle -3.04141e-014 1.43125e-014
lhumerus -51.4586 13.8944 71.4142
lradius 38.5315
lwrist -10.3512
lhand -4.93342 -31.3615
lfingers 7.12502
lthumb 20.8574 -2.46264
rfemur -29.9051 25.9984 12.086
rtibia 22.1147
rfoot -20.5891 -36.0897
rtoes 1.80727
lfemur 17.0928 -17.1228 -34.8283
ltibia 5.6129
lfoot -22.6402 24.7829
ltoes -14.0417
2483
root 11.0135 15.2461 -1.13508 -0.921678 -6.5806 362.462
lowerback 1.96754 -2.57767 -1.55678
upperback -6.15465 -3.44899 1.76609
thorax -7.32645 -1.55653 3.00194
lowerneck -12.7873 4.96462 3.65682
upperneck 11.2025 6.27259 -1.77136
head 5.64725 3.08555 -0.604741
rclavicle 1.05356e-014 1.03368e-014
rhumerus -57.5433 -7.64959 -65.652
rradius 34.0495
rwrist 16.4046
rhand -5.39561 -51.1768
rfingers 7.12502
rthumb -159.587 -620.124
lclavicle 1.05356e-014 1.03368e-014
lhumerus -51.7749 13.4362 72.2671
lradius 38.3806
lwrist -10.8229
lhand -4.68068 -31.251
lfingers 7.12502
lthumb 21.1002 -2.37907
rfemur -29.3597 25.965 12.1457
rtibia 22.1064
rfoot -20.7787 -36.0507
rtoes 1.62465
lfemur 16.9939 -16.9808 -34.891
ltibia 6.49342
lfoot -22.9742 24.5886
ltoes -15.1127
2484
root 10.9993 15.2303 -1.05999 -0.746198 -6.22233 362.611
lowerback 2.03066 -2.65766 -1.59827
upperback -6.1443 -3.55152 1.88924
thorax -7.33611 -1.60041 3.16522
lowerneck -12.6393 4.9314 3.64629
upperneck 10.9244 6.26514 -2.02552
head 5.54297 3.06443 -0.690279
rclavicle 2.18663e-015 2.38542e-015
rhumerus -57.3347 -7.56327 -65.6333
rradius 34.057
rwrist 16.6083
rhand -5.01389 -51.187
rfingers 7.12502
rthumb -159.22 -620.094
lclavicle 2.18663e-015 2.38542e-015
lhumerus -51.897 12.9967 73.0598
lradius 37.7463
lwrist -11.5503
lhand -4.98469 -31.834
lfingers 7.12502
lthumb 20.8081 -2.92973
rfemur -28.966 25.3401 12.1904
rtibia 22.1248
rfoot -20.4218 -35.6465
rtoes 1.0815
lfemur 16.644 -16.98 -34.9534
ltibia 7.31263
lfoot -22.8772 24.6501
ltoes -17.9173
2485
root 10.9837 15.2116 -0.989205 -0.505731 -5.87155 362.722
lowerback 2.17907 -2.71264 -1.5504
upperback -6.21123 -3.61684 2.00093
thorax -7.48657 -1.62778 3.27288
lowerneck -12.6513 4.89395 3.62099
upperneck 10.8688 6.25195 -2.27457
head 5.53454 3.03884 -0.765541
rclavicle -1.64991e-014 -1.43125e-014
rhumerus -57.0519 -7.58776 -65.53
rradius 33.9464
rwrist 16.8815
rhand -4.65903 -51.4683
rfingers 7.12502
rthumb -158.879 -620.338
lclavicle -1.64991e-014 -1.43125e-014
lhumerus -52.1056 12.4023 73.9321
lradius 37.2947
lwrist -12.093
lhand -5.20358 -32.1793
lfingers 7.12502
lthumb 20.5978 -3.25212
rfemur -28.6898 24.6136 12.2976
rtibia 22.2295
rfoot -19.9317 -35.2743
rtoes 0.26359
lfemur 16.4 -16.9951 -34.923
ltibia 7.79773
lfoot -22.9123 24.4748
ltoes -19.4867
2486
root 10.9644 15.1928 -0.908056 -0.428983 -5.54347 362.797
lowerback 2.35984 -2.73229 -1.47411
upperback -6.19978 -3.6321 2.11814
thorax -7.57593 -1.63365 3.36539
lowerneck -12.9239 4.85791 3.59834
upperneck 10.8707 6.22968 -2.50799
head 5.58688 3.00716 -0.830394
rclavicle -3.22031e-014 6.36111e-015
rhumerus -56.8631 -7.59786 -65.4299
rradius 33.9791
rwrist 16.8617
rhand -4.67953 -51.4353
rfingers 7.12502
rthumb -158.899 -620.307
lclavicle -3.22031e-014 6.36111e-015
lhumerus -52.4504 11.7191 74.9486
lradius 37.1951
lwrist -12.569
lhand -5.38569 -32.3524
lfingers 7.12502
lthumb 20.4228 -3.40639
rfemur -28.1611 24.1287 12.5294
rtibia 22.346
rfoot -20.1302 -35.0981
rtoes 0.428099
lfemur 16.5022 -16.9399 -34.9219
ltibia 8.14259
lfoot -23.1703 23.8991
ltoes -18.6453
2487
root 10.9445 15.1813 -0.818594 -0.52961 -5.14713 362.868
lowerback 2.54768 -2.79223 -1.47534
upperback -6.08369 -3.70378 2.26995
thorax -7.54593 -1.66495 3.53779
lowerneck -12.9319 4.81751 3.38875
upperneck 10.6024 6.20679 -2.50879
head 5.49655 2.98816 -0.802559
rclavicle -1.39149e-014 3.49861e-014
rhumerus -56.6443 -7.41467 -65.4521
rradius 34.1552
rwrist 16.6704
rhand -4.62888 -51.3224
rfingers 7.12502
rthumb -158.85 -620.189
lclavicle -1.39149e-014 3.49861e-014
lhumerus -52.6999 11.1845 75.949
lradius 36.9505
lwrist -13.1666
lhand -5.42757 -32.5205
lfingers 7.12502
lthumb 20.3826 -3.57015
rfemur -27.379 23.7342 12.8333
rtibia 22.3728
rfoot -20.2665 -35.2273
rtoes -0.0440733
lfemur 16.8195 -16.9021 -34.9862
ltibia 8.49207
lfoot -23.2045 23.442
ltoes -18.2176
2488
root 10.9244 15.1792 -0.727824 -0.555921 -4.63014 362.88
lowerback 2.7117 -2.91688 -1.41656
upperback -6.10577 -3.85584 2.45392
thorax -7.64686 -1.73439 3.72312
lowerneck -12.6169 4.79171 3.12086
upperneck 10.4212 6.22 -2.45796
head 5.3776 2.99166 -0.752669
rclavicle -7.95139e-015 -1.27222e-014
rhumerus -56.5974 -6.99155 -65.55
rradius 34.45
rwrist 16.5997
rhand -4.36406 -51.5394
rfingers 7.12502
rthumb -158.596 -620.377
lclavicle -7.95139e-015 -1.27222e-014
lhumerus -53.2448 10.6735 76.8923
lradius 36.7653
lwrist -13.5739
lhand -5.0506 -32.6346
lfingers 7.12502
lthumb 20.7448 -3.72339
rfemur -26.8759 24.1732 12.7914
rtibia 22.3169
rfoot -20.4502 -36.3101
rtoes 0.00824154
lfemur 17.0874 -17.0092 -34.9393
ltibia 8.71309
lfoot -22.9433 23.1912
ltoes -19.1118
2489
root 10.9011 15.1935 -0.637623 -0.340055 -4.22134 362.747
lowerback 2.07913 -2.95859 -1.13833
upperback -5.8361 -3.88397 2.59392
thorax -6.99469 -1.77747 3.66048
lowerneck -12.6825 4.77212 3.22197
upperneck 10.1352 6.21338 -2.82153
head 5.3141 2.9673 -0.884176
rclavicle 3.06128e-014 1.59028e-014
rhumerus -56.0862 -7.21108 -65.5738
rradius 34.5507
rwrist 16.8464
rhand -4.01614 -52.0524
rfingers 7.12502
rthumb -158.262 -620.852
lclavicle 3.06128e-014 1.59028e-014
lhumerus -53.2825 9.96149 78.0205
lradius 36.6354
lwrist -14.0348
lhand -4.93473 -32.9751
lfingers 7.12502
lthumb 20.8561 -4.07616
rfemur -26.9159 25.9383 12.3037
rtibia 22.2096
rfoot -22.0175 -38.1449
rtoes 3.83952
lfemur 17.1069 -17.0846 -34.6175
ltibia 8.81527
lfoot -22.5972 22.7606
ltoes -19.0805
